<?xml version="1.0" encoding="UTF-8"?>
<svg id="Layer_1" xmlns="http://www.w3.org/2000/svg" version="1.1" xmlns:xlink="http://www.w3.org/1999/xlink" viewBox="0 0 595.3 841.9">
  <!-- Generator: Adobe Illustrator 30.3.0, SVG Export Plug-In . SVG Version: 2.1.3 Build 182)  -->
  <defs>
    <style>
      .st0 {
        fill: url(#linear-gradient2);
      }

      .st1 {
        fill: #2dd4bf;
      }

      .st2 {
        fill: #fff;
      }

      .st3 {
        fill: url(#linear-gradient1);
      }

      .st4 {
        fill: #606060;
      }

      .st5, .st6 {
        fill: #1460e8;
      }

      .st6 {
        stroke: #1460e8;
        stroke-miterlimit: 10;
        stroke-width: .7px;
      }

      .st7 {
        fill: #3ba5ff;
      }

      .st8 {
        fill: url(#linear-gradient);
      }

      .st9 {
        fill: #0d1525;
      }
    </style>
    <linearGradient id="linear-gradient" x1="110.8" y1="203.1" x2="233.8" y2="203.1" gradientTransform="translate(0 842.1) scale(1 -1)" gradientUnits="userSpaceOnUse">
      <stop offset="0" stop-color="#1460e8"/>
      <stop offset=".3" stop-color="#3ba5ff"/>
      <stop offset=".6" stop-color="#22d3ee"/>
      <stop offset="1" stop-color="#2dd4bf"/>
    </linearGradient>
    <linearGradient id="linear-gradient1" x1="109.3" y1="111.3" x2="146" y2="111.3" gradientUnits="userSpaceOnUse">
      <stop offset="0" stop-color="#1437e8"/>
      <stop offset=".5" stop-color="#3ba5ff"/>
      <stop offset=".8" stop-color="#22afee"/>
      <stop offset="1" stop-color="#2da6bf"/>
    </linearGradient>
    <linearGradient id="linear-gradient2" x1="340.3" y1="109.4" x2="377" y2="109.4" gradientUnits="userSpaceOnUse">
      <stop offset="0" stop-color="#1478e8"/>
      <stop offset=".3" stop-color="#3ba5ff"/>
      <stop offset=".6" stop-color="#22d3ee"/>
      <stop offset="1" stop-color="#2dd4bf"/>
    </linearGradient>
  </defs>
  <rect class="st2" width="589.4" height="834.7"/>
  <path class="st8" d="M110.8,631.7c0-1.3.2-2.4.5-2.4h122.1c.2,0,.5,1.1.5,2.4v14.6c0,1.3-.2,2.4-.5,2.4h-122.1c-.2,0-.5-1.1-.5-2.4v-14.6Z"/>
  <path class="st5" d="M83.6,606.4c0-1.9,1.6-3.5,3.5-3.5h13.9c1.9,0,3.5,1.6,3.5,3.5v13.9c0,1.9-1.6,3.5-3.5,3.5h-13.9c-1.9,0-3.5-1.6-3.5-3.5v-13.9Z"/>
  <path class="st9" d="M83.6,632.1c0-1.9,1.6-3.5,3.5-3.5h13.9c1.9,0,3.5,1.6,3.5,3.5v13.9c0,1.9-1.6,3.5-3.5,3.5h-13.9c-1.9,0-3.5-1.6-3.5-3.5v-13.9Z"/>
  <path class="st7" d="M111,606.4c0-1.9,1.6-3.5,3.5-3.5h13.9c1.9,0,3.5,1.6,3.5,3.5v13.9c0,1.9-1.6,3.5-3.5,3.5h-13.9c-1.9,0-3.5-1.6-3.5-3.5v-13.9Z"/>
  <path class="st1" d="M138.3,606.4c0-1.9,1.6-3.5,3.5-3.5h13.9c1.9,0,3.5,1.6,3.5,3.5v13.9c0,1.9-1.6,3.5-3.5,3.5h-13.9c-1.9,0-3.5-1.6-3.5-3.5v-13.9Z"/>
  <g>
    <path class="st9" d="M155.6,112.1v-16.1h6c1.3,0,2.4.2,3.3.7.9.4,1.5,1,1.9,1.8.4.8.6,1.6.6,2.6s-.2,1.7-.6,2.5c-.4.8-1,1.4-1.9,1.8-.9.5-2,.7-3.3.7h-2.9v6.1h-3.1ZM158.7,103.5h2.7c1,0,1.7-.2,2.1-.7.4-.5.7-1.1.7-1.8s-.2-1.4-.7-1.8c-.4-.4-1.1-.7-2.1-.7h-2.7v5ZM178.7,112.4c-1.2,0-2.3-.2-3.2-.7-1-.5-1.7-1.2-2.3-2.1-.6-1-.9-2.2-.9-3.6v-9.9h3.1v9.9c0,.8.1,1.5.4,2,.3.5.6.9,1.1,1.2.5.3,1.1.4,1.8.4s1.3-.1,1.8-.4c.5-.3.9-.7,1.2-1.2.3-.6.4-1.2.4-2v-9.9h3.1v9.9c0,1.5-.3,2.7-.9,3.6-.6,1-1.4,1.7-2.4,2.1-1,.5-2.1.7-3.3.7ZM190.9,112.1v-16.1h3.1v6.4l5.8-6.4h3.8l-5.9,6.4,6.1,9.8h-3.8l-4.5-7.3-1.5,1.6v5.7h-3.1ZM214.8,112.4c-1.2,0-2.3-.2-3.2-.7-1-.5-1.7-1.2-2.3-2.1-.6-1-.9-2.2-.9-3.6v-9.9h3.1v9.9c0,.8.1,1.5.4,2,.3.5.6.9,1.1,1.2.5.3,1.1.4,1.8.4s1.3-.1,1.8-.4c.5-.3.9-.7,1.2-1.2.3-.6.4-1.2.4-2v-9.9h3.1v9.9c0,1.5-.3,2.7-.9,3.6-.6,1-1.4,1.7-2.4,2.1-1,.5-2.1.7-3.3.7Z"/>
    <path class="st5" d="M157.8,126c-.6,0-1.2-.1-1.7-.4-.5-.3-.8-.7-1.1-1.2-.3-.5-.4-1.1-.4-1.8s.1-1.3.4-1.8c.3-.5.6-.9,1.1-1.2.5-.3,1.1-.4,1.7-.4s1.4.2,1.9.5c.5.4.8.9,1,1.5h-.8c0-.4-.3-.8-.7-1-.4-.3-.8-.4-1.4-.4s-1,.1-1.3.3c-.4.2-.7.6-.9,1-.2.4-.3.9-.3,1.5s.1,1.1.3,1.5c.2.4.5.8.9,1,.4.2.8.3,1.3.3.8,0,1.3-.2,1.7-.7.4-.4.6-1.1.7-1.9h-2v-.5h2.7v3.6h-.6v-1.2c-.2.3-.4.5-.6.7-.2.2-.5.3-.8.5-.3,0-.6.1-1,.1ZM168.5,125.8v-6.7h.7v6.2h3.2v.5h-3.8ZM182.3,126c-.6,0-1.2-.1-1.7-.4-.5-.3-.9-.7-1.1-1.2-.3-.5-.4-1.1-.4-1.8s.1-1.3.4-1.8c.3-.5.7-.9,1.1-1.2.5-.3,1-.4,1.7-.4s1.2.1,1.7.4c.5.3.9.7,1.1,1.2.3.5.4,1.1.4,1.8s-.1,1.3-.4,1.8c-.3.5-.6.9-1.1,1.2-.5.3-1.1.4-1.7.4ZM182.3,125.4c.5,0,1-.1,1.3-.3.4-.2.7-.6.9-1,.2-.4.3-1,.3-1.6s-.1-1.1-.3-1.5c-.2-.4-.5-.8-.9-1-.4-.2-.8-.3-1.3-.3s-1,.1-1.3.3c-.4.2-.7.6-.9,1-.2.4-.3.9-.3,1.5s.1,1.1.3,1.6c.2.4.5.8.9,1,.4.2.8.3,1.3.3ZM193.1,125.8v-6.7h2.3c.5,0,.9,0,1.2.2s.5.4.7.6c.2.3.2.5.2.9s0,.6-.2.9c-.1.2-.3.4-.6.5-.2.1-.5.2-.7.2h.1c.3,0,.5,0,.8.1.2.1.4.3.6.6.1.2.2.5.2.8s0,.6-.2.9c-.2.3-.4.5-.7.7-.3.2-.7.2-1.2.2h-2.3ZM193.8,125.3h1.6c.5,0,.9-.1,1.1-.3.3-.2.4-.5.4-1s-.1-.7-.4-1c-.3-.2-.7-.4-1.1-.4h-1.6v2.6ZM193.8,122.1h1.6c.5,0,.8-.1,1-.3.2-.2.4-.5.4-.9s-.1-.6-.4-.9c-.2-.2-.6-.3-1.1-.3h-1.5v2.4ZM204.7,125.8l2.5-6.7h.7l2.5,6.7h-.7l-2.1-5.8-2.1,5.8h-.7ZM205.8,124l.2-.6h3l.2.6h-3.4ZM217.8,125.8v-6.7h.7v6.2h3.2v.5h-3.8Z"/>
  </g>
  <path class="st3" d="M144.1,119.6v-12.2c1-.2,1.9-1.2,1.9-2.4s-1.1-2.4-2.4-2.4-.7,0-1,.2l-6.2-6.5c.2-.3.4-.6.4-1,0-.8-.7-1.5-1.5-1.5s-1.3.5-1.5,1.2l-10.7-.9c0,0,0-.1,0-.2,0-.8-.7-1.5-1.5-1.5s-1.5.7-1.5,1.5.2.8.5,1.1l-8.7,6.7c-.3-.2-.6-.4-1-.4-.8,0-1.5.7-1.5,1.5s.5,1.4,1.2,1.5v11.8c-.7,0-1.3.7-1.3,1.5s.7,1.5,1.5,1.5.7-.1,1-.4l7.1,8c-.1.2-.2.5-.2.8,0,.8.7,1.5,1.5,1.5s1.3-.5,1.4-1.1l11.3,1.1c0,.8.7,1.4,1.5,1.4s1.5-.7,1.5-1.5-.2-.8-.5-1.1l7.4-5.8c.3.4.7.6,1.2.6.8,0,1.5-.7,1.5-1.5s-.6-1.5-1.4-1.5ZM136.2,121.4c0-.1,0-.2,0-.3,0-1-.5-1.9-1.3-2.4l2.7-7.1c0,0,.2,0,.3,0,.3,0,.5,0,.8-.2l4.3,8.6c-.2.2-.4.6-.4.9l-6.3.5ZM133.8,127.5l-8.4-8.2c.3-.2.6-.4.8-.7l4.3,1.8c0,.2,0,.4,0,.7,0,1.6,1.3,2.9,2.9,2.9s.2,0,.3,0l.5,3.5c-.1,0-.2,0-.3,0ZM112.3,117.4c0-.4-.2-.7-.5-1l2.8-5c.4.2.8.3,1.2.3s1.1-.2,1.5-.5l4.3,4.8c0,.3-.2.6-.2.9l-9.2.5ZM122.7,100.1l11.4-3.8c.1.1.2.2.4.3l-3.1,6.5c-.4-.2-.8-.3-1.3-.3-1,0-1.9.5-2.4,1.2l-5-2.5c.1-.2.2-.5.2-.7s0-.4-.1-.6ZM136.5,110.7l-10.7,4.2c-.2-.2-.4-.3-.6-.4l3.6-5.8c.4.2.8.3,1.3.3,1.3,0,2.4-.8,2.9-1.9l3.8,2.1c-.2.3-.3.6-.3.9s0,.4.1.6ZM128,108.2l-3.7,6.1s0,0-.1,0c-.4,0-.8.1-1.2.3l-.9-12.6c.2-.1.3-.2.4-.4l5,2.5c-.4.5-.6,1.1-.6,1.8s.4,1.8,1.1,2.3ZM126.4,115.6l10.3-4-2.6,6.8c-.2,0-.5-.1-.7-.1-1.3,0-2.4.9-2.7,2.1l-4.3-1.8c.3-.4.5-1,.5-1.5s-.2-1-.4-1.4ZM136.8,109.1l-3.9-2.1c.1-.3.2-.7.2-1.1,0-1.2-.7-2.2-1.7-2.8l3.1-6.5c.2,0,.4.1.6.1s.6,0,.8-.2l1.6,12.1c-.3,0-.6.2-.8.4ZM121.3,102.2l.9,13s0,0,0,0l-4.1-4.6c.5-.5.7-1.2.7-1.9s-.5-1.8-1.2-2.4l3.1-4.4c.2,0,.4.2.6.2ZM144,119.6c-.3,0-.6.1-.9.3l-4.3-8.6c.4-.3.6-.7.6-1.2s-.1-.7-.3-.9l2.6-2.6c.4.5,1.1.9,1.8.9s.2,0,.3,0v12.2ZM141.1,105c0,.6.2,1.1.5,1.5l-2.6,2.6c-.3-.3-.7-.5-1.1-.5s0,0-.1,0l-1.7-12.2s0,0,0,0l6.2,6.5c-.8.4-1.4,1.2-1.4,2.2ZM133.7,95.1c0,0,0,.1,0,.2,0,.3.1.6.3.9l-11.3,3.8c-.2-.4-.6-.7-1-.8l.3-4c.6-.1,1-.5,1.1-1.1l10.7.9ZM121.6,95.3c0,0,.1,0,.2,0l-.3,3.9s0,0-.1,0c-.8,0-1.5.7-1.5,1.5s.3,1,.7,1.3l-3.1,4.4c-.5-.3-1-.5-1.6-.5s-1.3.2-1.8.6l-2.1-2.7c.3-.3.4-.6.4-1.1s-.2-.8-.4-1l8.7-6.7c.2.2.5.3.9.3ZM110.9,104.3c.4,0,.7-.1.9-.3l2.1,2.7c-.6.5-1,1.3-1,2.2s.7,2.1,1.6,2.6l-2.8,5c-.2-.2-.5-.3-.8-.3v-11.8c0,0,0,0,0,0ZM111.9,118.6c.3-.3.4-.6.4-1s0,0,0,0l9.2-.5c0,.9.5,1.7,1.2,2.1l-2.1,6.8c-.1,0-.2,0-.4,0-.5,0-.9.2-1.2.6l-7.1-8ZM120.7,126.1l2.1-6.8c.4.2.9.4,1.4.4s.8-.1,1.2-.3l8.4,8.2c-.5.2-.8.7-.8,1.2l-11.2-1.1c0,0,0-.2,0-.2,0-.6-.4-1.2-1-1.4ZM135.3,127.7c-.3-.2-.6-.3-.9-.3s0,0,0,0l-.5-3.5c1.2-.2,2.2-1.1,2.4-2.3l6.3-.5c0,.3,0,.5.2.7l-7.5,5.9Z"/>
  <g>
    <g>
      <path class="st9" d="M131.8,435.9v-16.1h6c1.3,0,2.4.2,3.3.7.9.4,1.5,1,1.9,1.8.4.8.6,1.6.6,2.6s-.2,1.7-.6,2.5c-.4.8-1,1.4-1.9,1.8-.9.5-2,.7-3.3.7h-2.9v6.1h-3.1ZM134.9,427.3h2.7c1,0,1.7-.2,2.1-.7.4-.5.7-1.1.7-1.8s-.2-1.4-.7-1.8c-.4-.4-1.1-.7-2.1-.7h-2.7v5ZM154.9,436.1c-1.2,0-2.3-.2-3.2-.7-1-.5-1.7-1.2-2.3-2.1-.6-1-.9-2.2-.9-3.6v-9.9h3.1v9.9c0,.8.1,1.5.4,2,.3.5.6.9,1.1,1.2.5.3,1.1.4,1.8.4s1.3-.1,1.8-.4c.5-.3.9-.7,1.2-1.2.3-.6.4-1.2.4-2v-9.9h3.1v9.9c0,1.5-.3,2.7-.9,3.6-.6,1-1.4,1.7-2.4,2.1-1,.5-2.1.7-3.3.7ZM167.1,435.9v-16.1h3.1v6.4l5.8-6.4h3.8l-5.9,6.4,6.1,9.8h-3.8l-4.5-7.3-1.5,1.6v5.7h-3.1ZM191.1,436.1c-1.2,0-2.3-.2-3.2-.7-1-.5-1.7-1.2-2.3-2.1-.6-1-.9-2.2-.9-3.6v-9.9h3.1v9.9c0,.8.1,1.5.4,2,.3.5.6.9,1.1,1.2.5.3,1.1.4,1.8.4s1.3-.1,1.8-.4c.5-.3.9-.7,1.2-1.2.3-.6.4-1.2.4-2v-9.9h3.1v9.9c0,1.5-.3,2.7-.9,3.6-.6,1-1.4,1.7-2.4,2.1-1,.5-2.1.7-3.3.7Z"/>
      <path class="st5" d="M134,449.7c-.6,0-1.2-.1-1.7-.4-.5-.3-.8-.7-1.1-1.2-.3-.5-.4-1.1-.4-1.8s.1-1.3.4-1.8c.3-.5.6-.9,1.1-1.2.5-.3,1.1-.4,1.7-.4s1.4.2,1.9.5c.5.4.8.9,1,1.5h-.8c0-.4-.3-.8-.7-1-.4-.3-.8-.4-1.4-.4s-1,.1-1.3.3c-.4.2-.7.6-.9,1-.2.4-.3.9-.3,1.5s.1,1.1.3,1.5c.2.4.5.8.9,1,.4.2.8.3,1.3.3.8,0,1.3-.2,1.7-.7.4-.4.6-1.1.7-1.9h-2v-.5h2.7v3.6h-.6v-1.2c-.2.3-.4.5-.6.7-.2.2-.5.3-.8.5-.3,0-.6.1-1,.1ZM144.8,449.6v-6.7h.7v6.2h3.2v.5h-3.8ZM158.5,449.7c-.6,0-1.2-.1-1.7-.4-.5-.3-.9-.7-1.1-1.2-.3-.5-.4-1.1-.4-1.8s.1-1.3.4-1.8c.3-.5.7-.9,1.1-1.2.5-.3,1-.4,1.7-.4s1.2.1,1.7.4c.5.3.9.7,1.1,1.2.3.5.4,1.1.4,1.8s-.1,1.3-.4,1.8c-.3.5-.6.9-1.1,1.2-.5.3-1.1.4-1.7.4ZM158.5,449.1c.5,0,1-.1,1.3-.3.4-.2.7-.6.9-1,.2-.4.3-1,.3-1.6s-.1-1.1-.3-1.5c-.2-.4-.5-.8-.9-1-.4-.2-.8-.3-1.3-.3s-1,.1-1.3.3c-.4.2-.7.6-.9,1-.2.4-.3.9-.3,1.5s.1,1.1.3,1.6c.2.4.5.8.9,1,.4.2.8.3,1.3.3ZM169.4,449.6v-6.7h2.3c.5,0,.9,0,1.2.2s.5.4.7.6c.2.3.2.5.2.9s0,.6-.2.9c-.1.2-.3.4-.6.5-.2.1-.5.2-.7.2h.1c.3,0,.5,0,.8.1.2.1.4.3.6.6.1.2.2.5.2.8s0,.6-.2.9c-.2.3-.4.5-.7.7-.3.2-.7.2-1.2.2h-2.3ZM170,449h1.6c.5,0,.9-.1,1.1-.3.3-.2.4-.5.4-1s-.1-.7-.4-1c-.3-.2-.7-.4-1.1-.4h-1.6v2.6ZM170,445.9h1.6c.5,0,.8-.1,1-.3.2-.2.4-.5.4-.9s-.1-.6-.4-.9c-.2-.2-.6-.3-1.1-.3h-1.5v2.4ZM180.9,449.6l2.5-6.7h.7l2.5,6.7h-.7l-2.1-5.8-2.1,5.8h-.7ZM182,447.8l.2-.6h3l.2.6h-3.4ZM194,449.6v-6.7h.7v6.2h3.2v.5h-3.8Z"/>
    </g>
    <g>
      <rect class="st5" x="86.9" y="426.5" width=".1" height="14.9" transform="translate(-3.8 .8) rotate(-.5)"/>
      <rect class="st5" x="85.1" y="422.1" width="14.5" height=".1" transform="translate(-239.3 145.2) rotate(-37.8)"/>
      <rect class="st5" x="104.7" y="411.6" width=".1" height="13.3" transform="translate(-321.2 485.9) rotate(-85)"/>
      <rect class="st5" x="115.7" y="417.2" width=".1" height="12.6" transform="translate(-260.7 197.6) rotate(-43.7)"/>
      <rect class="st5" x="120.1" y="428" width=".1" height="16.2" transform="translate(-3.5 1) rotate(-.5)"/>
      <rect class="st5" x="109.3" y="448.4" width="12.4" height=".1" transform="translate(-252.5 167.3) rotate(-38.2)"/>
      <rect class="st5" x="103.3" y="444.7" width=".1" height="14.7" transform="translate(-356.7 510.7) rotate(-84.4)"/>
      <rect class="st5" x="91.7" y="440.1" width=".1" height="12.9" transform="translate(-273.9 174.3) rotate(-41.7)"/>
      <polygon class="st5" points="91.9 432.6 86.7 426 86.8 425.9 92 432.5 91.9 432.6"/>
      <polygon class="st5" points="87.6 441 87.5 440.9 91.9 432.9 92 433 87.6 441"/>
      <rect class="st5" x="89.9" y="428.5" width="9.7" height=".1" transform="translate(-310.1 259) rotate(-54.8)"/>
      <rect class="st5" x="94.4" y="421.1" width="6.9" height=".1" transform="translate(-329.6 486.7) rotate(-85.6)"/>
      <rect class="st5" x="102" y="421.9" width=".1" height="10.1" transform="translate(-324.8 324.8) rotate(-63.1)"/>
      <rect class="st5" x="103.6" y="423.8" width="11" height=".1" transform="translate(-320.7 340.8) rotate(-64.6)"/>
      <rect class="st6" x="95.7" y="431.1" width=".1" height="11.4" transform="translate(-266.5 174.6) rotate(-41.7)"/>
      <rect class="st5" x="92.7" y="446.1" width="10.6" height=".1" transform="translate(-357.2 407.9) rotate(-72.8)"/>
      <rect class="st6" x="96.1" y="434.7" width="13.9" height=".1" transform="translate(-321.3 294.9) rotate(-58.4)"/>
      <polygon class="st5" points="114.1 433.6 106.3 429.3 106.4 429.1 114.2 433.4 114.1 433.6"/>
      <rect class="st5" x="113.4" y="430.8" width="7.9" height=".1" transform="translate(-270.3 209.1) rotate(-45)"/>
      <rect class="st5" x="116.9" y="432.8" width=".1" height="12.5" transform="translate(-184 98.6) rotate(-26.6)"/>
      <rect class="st6" x="105.6" y="439.3" width="12.6" height=".1" transform="translate(-338.2 384.2) rotate(-68.7)"/>
      <rect class="st5" x="110" y="445.2" width=".1" height="7.1" transform="translate(-64.6 21) rotate(-8.4)"/>
      <polygon class="st5" points="109.6 445.3 99.5 441.1 99.6 441 109.6 445.2 109.6 445.3"/>
      <path class="st5" d="M88.6,426.5c0,.8-.7,1.5-1.5,1.5s-1.5-.7-1.5-1.5.7-1.5,1.5-1.5,1.5.7,1.5,1.5Z"/>
      <path class="st5" d="M99.3,417.5c0,.8-.7,1.5-1.5,1.5s-1.5-.7-1.5-1.5.7-1.5,1.5-1.5,1.5.7,1.5,1.5Z"/>
      <path class="st5" d="M99,424.4c0,.8-.7,1.5-1.5,1.5s-1.5-.7-1.5-1.5.7-1.5,1.5-1.5,1.5.7,1.5,1.5Z"/>
      <path class="st5" d="M95,432.5c0,1.6-1.3,2.9-2.9,2.9s-2.9-1.3-2.9-2.9,1.3-2.9,2.9-2.9,2.9,1.3,2.9,2.9Z"/>
      <path class="st5" d="M88.5,441.3c0,.8-.7,1.5-1.5,1.5s-1.5-.7-1.5-1.5.7-1.5,1.5-1.5,1.5.7,1.5,1.5Z"/>
      <path class="st5" d="M97.9,451.2c0,.8-.7,1.5-1.5,1.5s-1.5-.7-1.5-1.5.7-1.5,1.5-1.5,1.5.7,1.5,1.5Z"/>
      <path class="st5" d="M103.1,440.7c0,1.5-1.2,2.7-2.7,2.7s-2.7-1.2-2.7-2.7,1.2-2.7,2.7-2.7,2.7,1.2,2.7,2.7Z"/>
      <path class="st5" d="M109.4,429.7c0,1.7-1.4,3.1-3.1,3.1s-3.1-1.4-3.1-3.1,1.4-3.1,3.1-3.1,3.1,1.4,3.1,3.1Z"/>
      <path class="st5" d="M112.9,419c0,.8-.7,1.5-1.5,1.5s-1.5-.7-1.5-1.5.7-1.5,1.5-1.5,1.5.7,1.5,1.5Z"/>
      <path class="st5" d="M122.2,428.8c0,1.4-1.1,2.4-2.4,2.4s-2.4-1.1-2.4-2.4,1.1-2.4,2.4-2.4,2.4,1.1,2.4,2.4Z"/>
      <path class="st5" d="M115.6,433.9c0,.8-.7,1.5-1.5,1.5s-1.5-.7-1.5-1.5.7-1.5,1.5-1.5,1.5.7,1.5,1.5Z"/>
      <path class="st5" d="M112.5,444.8c0,1.6-1.3,2.9-2.9,2.9s-2.9-1.3-2.9-2.9,1.3-2.9,2.9-2.9,2.9,1.3,2.9,2.9Z"/>
      <path class="st5" d="M112.1,452.7c0,.8-.7,1.5-1.5,1.5s-1.5-.7-1.5-1.5.7-1.5,1.5-1.5,1.5.7,1.5,1.5Z"/>
      <path class="st5" d="M121.8,444.8c0,.8-.7,1.5-1.5,1.5s-1.5-.7-1.5-1.5.7-1.5,1.5-1.5,1.5.7,1.5,1.5Z"/>
      <rect class="st5" x="109.2" y="445" width="10.6" height=".1" transform="translate(-32.7 9.7) rotate(-4.3)"/>
      <rect class="st5" x="87" y="440.9" width="12.4" height=".1" transform="translate(-24 5.8) rotate(-3.1)"/>
      <rect class="st5" x="97.7" y="421.8" width="13.5" height=".1" transform="translate(-129.7 55.7) rotate(-18.7)"/>
      <rect class="st6" x="98.4" y="425.3" width=".1" height="15.8" transform="translate(-29.6 7.8) rotate(-3.9)"/>
      <rect class="st5" x="113.1" y="419.3" width=".1" height="14.7" transform="translate(-56.2 19) rotate(-7.7)"/>
      <rect class="st6" x="99.8" y="437.2" width="14" height=".1" transform="translate(-151.5 68.6) rotate(-21.3)"/>
      <rect class="st5" x="105.3" y="438.6" width=".1" height="16.3" transform="translate(-287.5 209.3) rotate(-45.6)"/>
    </g>
  </g>
  <g>
    <g>
      <path class="st9" d="M129.9,535v-16.1h6c1.3,0,2.4.2,3.3.7.9.4,1.5,1,1.9,1.8.4.8.6,1.6.6,2.6s-.2,1.7-.6,2.5c-.4.8-1,1.4-1.9,1.8-.9.5-2,.7-3.3.7h-2.9v6.1h-3.1ZM133,526.4h2.7c1,0,1.7-.2,2.1-.7.4-.5.7-1.1.7-1.8s-.2-1.4-.7-1.8c-.4-.4-1.1-.7-2.1-.7h-2.7v5ZM153,535.3c-1.2,0-2.3-.2-3.2-.7-1-.5-1.7-1.2-2.3-2.1-.6-1-.9-2.2-.9-3.6v-9.9h3.1v9.9c0,.8.1,1.5.4,2,.3.5.6.9,1.1,1.2.5.3,1.1.4,1.8.4s1.3-.1,1.8-.4c.5-.3.9-.7,1.2-1.2.3-.6.4-1.2.4-2v-9.9h3.1v9.9c0,1.5-.3,2.7-.9,3.6-.6,1-1.4,1.7-2.4,2.1-1,.5-2.1.7-3.3.7ZM165.2,535v-16.1h3.1v6.4l5.8-6.4h3.8l-5.9,6.4,6.1,9.8h-3.8l-4.5-7.3-1.5,1.6v5.7h-3.1ZM189.2,535.3c-1.2,0-2.3-.2-3.2-.7-1-.5-1.7-1.2-2.3-2.1-.6-1-.9-2.2-.9-3.6v-9.9h3.1v9.9c0,.8.1,1.5.4,2,.3.5.6.9,1.1,1.2.5.3,1.1.4,1.8.4s1.3-.1,1.8-.4c.5-.3.9-.7,1.2-1.2.3-.6.4-1.2.4-2v-9.9h3.1v9.9c0,1.5-.3,2.7-.9,3.6-.6,1-1.4,1.7-2.4,2.1-1,.5-2.1.7-3.3.7Z"/>
      <path class="st9" d="M132.1,548.9c-.6,0-1.2-.1-1.7-.4-.5-.3-.8-.7-1.1-1.2-.3-.5-.4-1.1-.4-1.8s.1-1.3.4-1.8c.3-.5.6-.9,1.1-1.2.5-.3,1.1-.4,1.7-.4s1.4.2,1.9.5c.5.4.8.9,1,1.5h-.8c0-.4-.3-.8-.7-1-.4-.3-.8-.4-1.4-.4s-1,.1-1.3.3c-.4.2-.7.6-.9,1-.2.4-.3.9-.3,1.5s.1,1.1.3,1.5c.2.4.5.8.9,1,.4.2.8.3,1.3.3.8,0,1.3-.2,1.7-.7.4-.4.6-1.1.7-1.9h-2v-.5h2.7v3.6h-.6v-1.2c-.2.3-.4.5-.6.7-.2.2-.5.3-.8.5-.3,0-.6.1-1,.1ZM142.8,548.8v-6.7h.7v6.2h3.2v.5h-3.8ZM156.6,548.9c-.6,0-1.2-.1-1.7-.4-.5-.3-.9-.7-1.1-1.2-.3-.5-.4-1.1-.4-1.8s.1-1.3.4-1.8c.3-.5.7-.9,1.1-1.2.5-.3,1-.4,1.7-.4s1.2.1,1.7.4c.5.3.9.7,1.1,1.2.3.5.4,1.1.4,1.8s-.1,1.3-.4,1.8c-.3.5-.6.9-1.1,1.2-.5.3-1.1.4-1.7.4ZM156.6,548.3c.5,0,1-.1,1.3-.3.4-.2.7-.6.9-1,.2-.4.3-1,.3-1.6s-.1-1.1-.3-1.5c-.2-.4-.5-.8-.9-1-.4-.2-.8-.3-1.3-.3s-1,.1-1.3.3c-.4.2-.7.6-.9,1-.2.4-.3.9-.3,1.5s.1,1.1.3,1.6c.2.4.5.8.9,1,.4.2.8.3,1.3.3ZM167.4,548.8v-6.7h2.3c.5,0,.9,0,1.2.2s.5.4.7.6c.2.3.2.5.2.9s0,.6-.2.9c-.1.2-.3.4-.6.5-.2.1-.5.2-.7.2h.1c.3,0,.5,0,.8.1.2.1.4.3.6.6.1.2.2.5.2.8s0,.6-.2.9c-.2.3-.4.5-.7.7-.3.2-.7.2-1.2.2h-2.3ZM168.1,548.2h1.6c.5,0,.9-.1,1.1-.3.3-.2.4-.5.4-1s-.1-.7-.4-1c-.3-.2-.7-.4-1.1-.4h-1.6v2.6ZM168.1,545h1.6c.5,0,.8-.1,1-.3.2-.2.4-.5.4-.9s-.1-.6-.4-.9c-.2-.2-.6-.3-1.1-.3h-1.5v2.4ZM179,548.8l2.5-6.7h.7l2.5,6.7h-.7l-2.1-5.8-2.1,5.8h-.7ZM180.1,546.9l.2-.6h3l.2.6h-3.4ZM192.1,548.8v-6.7h.7v6.2h3.2v.5h-3.8Z"/>
    </g>
    <g>
      <rect class="st9" x="85" y="525.6" width=".1" height="14.9" transform="translate(-4.7 .8) rotate(-.5)"/>
      <rect class="st9" x="83.2" y="521.3" width="14.5" height=".1" transform="translate(-300.5 164.8) rotate(-37.8)"/>
      <rect class="st9" x="102.8" y="510.8" width=".1" height="13.3" transform="translate(-421.7 574.4) rotate(-85)"/>
      <rect class="st9" x="113.8" y="516.3" width=".1" height="12.6" transform="translate(-329.8 223.8) rotate(-43.7)"/>
      <rect class="st9" x="118.2" y="527.2" width=".1" height="16.2" transform="translate(-4.3 1) rotate(-.5)"/>
      <rect class="st9" x="107.4" y="547.5" width="12.4" height=".1" transform="translate(-314.2 187.3) rotate(-38.2)"/>
      <rect class="st9" x="101.3" y="543.9" width=".1" height="14.7" transform="translate(-457.1 598.3) rotate(-84.4)"/>
      <rect class="st9" x="89.7" y="539.2" width=".1" height="12.9" transform="translate(-340.4 198.2) rotate(-41.7)"/>
      <polygon class="st9" points="90 531.8 84.8 525.1 84.9 525.1 90.1 531.7 90 531.8"/>
      <polygon class="st9" points="85.7 540.1 85.6 540.1 90 532.1 90.1 532.2 85.7 540.1"/>
      <rect class="st9" x="88" y="527.7" width="9.7" height=".1" transform="translate(-391.9 299.4) rotate(-54.8)"/>
      <rect class="st9" x="92.5" y="520.3" width="6.9" height=".1" transform="translate(-430.2 576.4) rotate(-85.6)"/>
      <rect class="st9" x="100.1" y="521" width=".1" height="10.1" transform="translate(-414.3 377.4) rotate(-63.1)"/>
      <rect class="st9" x="101.7" y="522.9" width="11" height=".1" transform="translate(-411.4 395.8) rotate(-64.6)"/>
      <rect class="st9" x="93.8" y="530.3" width=".1" height="11.4" transform="translate(-333 198.5) rotate(-41.7)"/>
      <rect class="st9" x="90.7" y="545.2" width="10.6" height=".1" transform="translate(-453.3 476) rotate(-72.8)"/>
      <rect class="st9" x="94.2" y="533.8" width="13.9" height=".1" transform="translate(-406.7 340.5) rotate(-58.4)"/>
      <polygon class="st9" points="112.2 532.7 104.4 528.4 104.4 528.3 112.2 532.6 112.2 532.7"/>
      <rect class="st9" x="111.4" y="529.9" width="7.9" height=".1" transform="translate(-341 236.8) rotate(-45)"/>
      <rect class="st9" x="114.9" y="532" width=".1" height="12.5" transform="translate(-228.6 108.3) rotate(-26.6)"/>
      <rect class="st9" x="103.6" y="538.5" width="12.6" height=".1" transform="translate(-431.8 445.6) rotate(-68.7)"/>
      <rect class="st9" x="108.1" y="544.4" width=".1" height="7.1" transform="translate(-79.1 21.8) rotate(-8.4)"/>
      <polygon class="st9" points="107.6 544.5 97.6 540.3 97.6 540.2 107.7 544.3 107.6 544.5"/>
      <path class="st9" d="M86.7,525.7c0,.8-.7,1.5-1.5,1.5s-1.5-.7-1.5-1.5.7-1.5,1.5-1.5,1.5.7,1.5,1.5Z"/>
      <path class="st9" d="M97.4,516.7c0,.8-.7,1.5-1.5,1.5s-1.5-.7-1.5-1.5.7-1.5,1.5-1.5,1.5.7,1.5,1.5Z"/>
      <path class="st9" d="M97.1,523.6c0,.8-.7,1.5-1.5,1.5s-1.5-.7-1.5-1.5.7-1.5,1.5-1.5,1.5.7,1.5,1.5Z"/>
      <path class="st9" d="M93,531.7c0,1.6-1.3,2.9-2.9,2.9s-2.9-1.3-2.9-2.9,1.3-2.9,2.9-2.9,2.9,1.3,2.9,2.9Z"/>
      <path class="st9" d="M86.6,540.5c0,.8-.7,1.5-1.5,1.5s-1.5-.7-1.5-1.5.7-1.5,1.5-1.5,1.5.7,1.5,1.5Z"/>
      <path class="st9" d="M96,550.4c0,.8-.7,1.5-1.5,1.5s-1.5-.7-1.5-1.5.7-1.5,1.5-1.5,1.5.7,1.5,1.5Z"/>
      <path class="st9" d="M101.1,539.9c0,1.5-1.2,2.7-2.7,2.7s-2.7-1.2-2.7-2.7,1.2-2.7,2.7-2.7,2.7,1.2,2.7,2.7Z"/>
      <path class="st9" d="M107.5,528.8c0,1.7-1.4,3.1-3.1,3.1s-3.1-1.4-3.1-3.1,1.4-3.1,3.1-3.1,3.1,1.4,3.1,3.1Z"/>
      <path class="st9" d="M111,518.2c0,.8-.7,1.5-1.5,1.5s-1.5-.7-1.5-1.5.7-1.5,1.5-1.5,1.5.7,1.5,1.5Z"/>
      <path class="st9" d="M120.3,527.9c0,1.4-1.1,2.4-2.4,2.4s-2.4-1.1-2.4-2.4,1.1-2.4,2.4-2.4,2.4,1.1,2.4,2.4Z"/>
      <path class="st9" d="M113.7,533.1c0,.8-.7,1.5-1.5,1.5s-1.5-.7-1.5-1.5.7-1.5,1.5-1.5,1.5.7,1.5,1.5Z"/>
      <path class="st9" d="M110.5,544c0,1.6-1.3,2.9-2.9,2.9s-2.9-1.3-2.9-2.9,1.3-2.9,2.9-2.9,2.9,1.3,2.9,2.9Z"/>
      <path class="st9" d="M110.2,551.8c0,.8-.7,1.5-1.5,1.5s-1.5-.7-1.5-1.5.7-1.5,1.5-1.5,1.5.7,1.5,1.5Z"/>
      <path class="st9" d="M119.8,544c0,.8-.7,1.5-1.5,1.5s-1.5-.7-1.5-1.5.7-1.5,1.5-1.5,1.5.7,1.5,1.5Z"/>
      <rect class="st9" x="107.2" y="544.2" width="10.6" height=".1" transform="translate(-40 9.8) rotate(-4.3)"/>
      <rect class="st9" x="85.1" y="540.1" width="12.4" height=".1" transform="translate(-29.4 5.8) rotate(-3.1)"/>
      <rect class="st9" x="95.8" y="521" width="13.5" height=".1" transform="translate(-161.5 60.3) rotate(-18.7)"/>
      <rect class="st9" x="96.4" y="524.5" width=".1" height="15.8" transform="translate(-36.4 7.9) rotate(-3.9)"/>
      <rect class="st9" x="111.2" y="518.5" width=".1" height="14.7" transform="translate(-69.6 19.7) rotate(-7.7)"/>
      <rect class="st9" x="97.8" y="536.3" width="14" height=".1" transform="translate(-187.7 74.7) rotate(-21.3)"/>
      <rect class="st9" x="103.4" y="537.8" width=".1" height="16.3" transform="translate(-358.8 237.7) rotate(-45.6)"/>
    </g>
  </g>
  <rect class="st9" x="317.9" y="40.5" width="167.1" height="135.5"/>
  <g>
    <path class="st2" d="M386.6,110.2v-16.1h6c1.3,0,2.4.2,3.3.7.9.4,1.5,1,1.9,1.8.4.8.6,1.6.6,2.6s-.2,1.7-.6,2.5c-.4.8-1,1.4-1.9,1.8-.9.5-2,.7-3.3.7h-2.9v6.1h-3.1ZM389.7,101.6h2.7c1,0,1.7-.2,2.1-.7.4-.5.7-1.1.7-1.8s-.2-1.4-.7-1.8c-.4-.4-1.1-.7-2.1-.7h-2.7v5ZM409.6,110.5c-1.2,0-2.3-.2-3.2-.7-1-.5-1.7-1.2-2.3-2.1-.6-1-.9-2.2-.9-3.6v-9.9h3.1v9.9c0,.8.1,1.5.4,2,.3.5.6.9,1.1,1.2.5.3,1.1.4,1.8.4s1.3-.1,1.8-.4c.5-.3.9-.7,1.2-1.2.3-.6.4-1.2.4-2v-9.9h3.1v9.9c0,1.5-.3,2.7-.9,3.6-.6,1-1.4,1.7-2.4,2.1-1,.5-2.1.7-3.3.7ZM421.8,110.2v-16.1h3.1v6.4l5.8-6.4h3.8l-5.9,6.4,6.1,9.8h-3.8l-4.5-7.3-1.5,1.6v5.7h-3.1ZM445.8,110.5c-1.2,0-2.3-.2-3.2-.7-1-.5-1.7-1.2-2.3-2.1-.6-1-.9-2.2-.9-3.6v-9.9h3.1v9.9c0,.8.1,1.5.4,2,.3.5.6.9,1.1,1.2.5.3,1.1.4,1.8.4s1.3-.1,1.8-.4c.5-.3.9-.7,1.2-1.2.3-.6.4-1.2.4-2v-9.9h3.1v9.9c0,1.5-.3,2.7-.9,3.6-.6,1-1.4,1.7-2.4,2.1-1,.5-2.1.7-3.3.7Z"/>
    <path class="st7" d="M388.7,124c-.6,0-1.2-.1-1.7-.4-.5-.3-.8-.7-1.1-1.2-.3-.5-.4-1.1-.4-1.8s.1-1.3.4-1.8c.3-.5.6-.9,1.1-1.2.5-.3,1.1-.4,1.7-.4s1.4.2,1.9.5c.5.4.8.9,1,1.5h-.8c0-.4-.3-.8-.7-1-.4-.3-.8-.4-1.4-.4s-1,.1-1.3.3c-.4.2-.7.6-.9,1-.2.4-.3.9-.3,1.5s.1,1.1.3,1.5c.2.4.5.8.9,1,.4.2.8.3,1.3.3.8,0,1.3-.2,1.7-.7.4-.4.6-1.1.7-1.9h-2v-.5h2.7v3.6h-.6v-1.2c-.2.3-.4.5-.6.7-.2.2-.5.3-.8.5-.3,0-.6.1-1,.1ZM399.5,123.9v-6.7h.7v6.2h3.2v.5h-3.8ZM413.2,124c-.6,0-1.2-.1-1.7-.4-.5-.3-.9-.7-1.1-1.2-.3-.5-.4-1.1-.4-1.8s.1-1.3.4-1.8c.3-.5.7-.9,1.1-1.2.5-.3,1-.4,1.7-.4s1.2.1,1.7.4c.5.3.9.7,1.1,1.2.3.5.4,1.1.4,1.8s-.1,1.3-.4,1.8c-.3.5-.6.9-1.1,1.2-.5.3-1.1.4-1.7.4ZM413.2,123.5c.5,0,1-.1,1.3-.3.4-.2.7-.6.9-1,.2-.4.3-1,.3-1.6s-.1-1.1-.3-1.5c-.2-.4-.5-.8-.9-1-.4-.2-.8-.3-1.3-.3s-1,.1-1.3.3c-.4.2-.7.6-.9,1-.2.4-.3.9-.3,1.5s.1,1.1.3,1.6c.2.4.5.8.9,1,.4.2.8.3,1.3.3ZM424.1,123.9v-6.7h2.3c.5,0,.9,0,1.2.2s.5.4.7.6c.2.3.2.5.2.9s0,.6-.2.9c-.1.2-.3.4-.6.5-.2.1-.5.2-.7.2h.1c.3,0,.5,0,.8.1.2.1.4.3.6.6.1.2.2.5.2.8s0,.6-.2.9c-.2.3-.4.5-.7.7-.3.2-.7.2-1.2.2h-2.3ZM424.8,123.4h1.6c.5,0,.9-.1,1.1-.3.3-.2.4-.5.4-1s-.1-.7-.4-1c-.3-.2-.7-.4-1.1-.4h-1.6v2.6ZM424.8,120.2h1.6c.5,0,.8-.1,1-.3.2-.2.4-.5.4-.9s-.1-.6-.4-.9c-.2-.2-.6-.3-1.1-.3h-1.5v2.4ZM435.7,123.9l2.5-6.7h.7l2.5,6.7h-.7l-2.1-5.8-2.1,5.8h-.7ZM436.8,122.1l.2-.6h3l.2.6h-3.4ZM448.8,123.9v-6.7h.7v6.2h3.2v.5h-3.8Z"/>
    <path class="st0" d="M375.1,117.7v-12.2c1-.2,1.9-1.2,1.9-2.4s-1.1-2.4-2.4-2.4-.7,0-1,.2l-6.2-6.5c.2-.3.4-.6.4-1,0-.8-.7-1.5-1.5-1.5s-1.3.5-1.5,1.2l-10.7-.9c0,0,0-.1,0-.2,0-.8-.7-1.5-1.5-1.5s-1.5.7-1.5,1.5.2.8.5,1.1l-8.7,6.7c-.3-.2-.6-.4-1-.4-.8,0-1.5.7-1.5,1.5s.5,1.4,1.2,1.5v11.8c-.7,0-1.3.7-1.3,1.5s.7,1.5,1.5,1.5.7-.1,1-.4l7.1,8c-.1.2-.2.5-.2.8,0,.8.7,1.5,1.5,1.5s1.3-.5,1.4-1.1l11.3,1.1c0,.8.7,1.4,1.5,1.4s1.5-.7,1.5-1.5-.2-.8-.5-1.1l7.4-5.8c.3.4.7.6,1.2.6.8,0,1.5-.7,1.5-1.5s-.6-1.5-1.4-1.5ZM367.2,119.5c0-.1,0-.2,0-.3,0-1.1-.7-2.1-1.7-2.6l2.7-7c.2,0,.4.1.6.1s.5,0,.8-.2l4.3,8.6c-.2.2-.4.6-.4.9l-6.3.5ZM364.8,125.6l-8.4-8.2c.3-.2.6-.4.8-.7l4.3,1.8c0,.2,0,.4,0,.7,0,1.6,1.3,2.9,2.9,2.9s.2,0,.3,0l.5,3.5c-.1,0-.2,0-.3,0ZM343.3,115.5c0-.4-.2-.7-.5-1l2.8-5c.4.2.8.3,1.2.3.7,0,1.3-.3,1.8-.7l4.2,4.7c-.2.4-.3.8-.3,1.2l-9.2.5ZM353.7,98.2l11.4-3.8c.1.1.2.2.4.3l-3.1,6.5c-.4-.2-.8-.3-1.3-.3-1,0-1.9.5-2.4,1.2l-5-2.5c.1-.2.2-.5.2-.7s0-.4-.1-.6ZM364.4,116.3c-1.3,0-2.4.9-2.7,2.1l-4.3-1.8c.3-.4.5-1,.5-1.5s-.2-1.3-.6-1.7l10.6-4.1c.1.1.2.2.4.3l-2.7,7c-.3-.1-.7-.2-1.1-.2ZM353.5,99.6l5,2.5c-.4.5-.6,1.1-.6,1.8,0,1.1.5,2,1.4,2.6l-3.6,5.9c-.2,0-.3,0-.5,0-.6,0-1.1.2-1.5.5l-.9-12.7c.3-.1.6-.3.7-.6ZM367.7,109.1l-10.6,4.1c-.3-.4-.8-.6-1.3-.7l3.6-5.9c.5.3,1,.5,1.6.5,1.3,0,2.4-.8,2.9-1.9l3.8,2.1c-.2.3-.3.6-.3.9s.1.6.3.9ZM367.8,107.2l-3.9-2.1c.1-.3.2-.7.2-1.1,0-1.2-.7-2.2-1.7-2.8l3.1-6.5c.2,0,.4.1.6.1s.6,0,.8-.2l1.6,12.1c-.3,0-.6.2-.8.4ZM352.3,100.3c.1,0,.2,0,.3,0l.9,12.7c-.2.2-.5.4-.6.7l-4.1-4.6c.6-.5,1-1.3,1-2.2s-.5-1.8-1.2-2.4l3.1-4.4c.2,0,.4.2.7.2ZM374.9,117.7c-.3,0-.6.1-.9.3l-4.3-8.6c.4-.3.6-.7.6-1.2s-.1-.7-.3-.9l2.6-2.6c.4.5,1.1.9,1.8.9s.2,0,.3,0v12.2ZM372.1,103.1c0,.6.2,1.1.5,1.5l-2.6,2.6c-.3-.3-.7-.5-1.1-.5s0,0-.1,0l-1.7-12.2s0,0,0,0l6.2,6.5c-.8.4-1.4,1.2-1.4,2.2ZM364.7,93.2c0,0,0,.1,0,.2,0,.3.1.6.3.9l-11.3,3.8c-.2-.4-.6-.7-1-.8l.3-4c.6-.1,1-.5,1.1-1.1l10.7.9ZM352.5,93.4c0,0,.1,0,.2,0l-.3,3.9s0,0-.1,0c-.8,0-1.5.7-1.5,1.5s.3,1,.7,1.3l-3.1,4.4c-.5-.3-1-.5-1.6-.5s-1.3.2-1.8.6l-2.1-2.7c.3-.3.4-.6.4-1.1s-.2-.8-.4-1l8.7-6.7c.2.2.5.3.9.3ZM341.9,102.3c.4,0,.7-.1.9-.3l2.1,2.7c-.6.5-1,1.3-1,2.2s.7,2.1,1.6,2.6l-2.8,5c-.2-.2-.5-.3-.8-.3v-11.8c0,0,0,0,0,0ZM342.9,116.7c.3-.3.4-.6.4-1s0,0,0,0l9.2-.5c0,.9.5,1.7,1.2,2.1l-2.1,6.8c-.1,0-.2,0-.4,0-.5,0-.9.2-1.2.6l-7.1-8ZM351.7,124.1l2.1-6.8c.4.2.9.4,1.4.4s.8-.1,1.2-.3l8.4,8.2c-.5.2-.8.7-.8,1.2l-11.2-1.1c0,0,0-.2,0-.2,0-.6-.4-1.2-1-1.4ZM366.3,125.8c-.3-.2-.6-.3-.9-.3s0,0,0,0l-.5-3.5c1.2-.2,2.2-1.1,2.4-2.3l6.3-.5c0,.3,0,.5.2.7l-7.5,5.9Z"/>
  </g>
  <rect class="st9" x="287.2" y="417.5" width="167.1" height="135.5"/>
  <g>
    <path class="st2" d="M355.9,487.3v-16.1h6c1.3,0,2.4.2,3.3.7.9.4,1.5,1,1.9,1.8.4.8.6,1.6.6,2.6s-.2,1.7-.6,2.5c-.4.8-1,1.4-1.9,1.8-.9.5-2,.7-3.3.7h-2.9v6.1h-3.1ZM359,478.7h2.7c1,0,1.7-.2,2.1-.7.4-.5.7-1.1.7-1.8s-.2-1.4-.7-1.8c-.4-.4-1.1-.7-2.1-.7h-2.7v5ZM379,487.5c-1.2,0-2.3-.2-3.2-.7-1-.5-1.7-1.2-2.3-2.1-.6-1-.9-2.2-.9-3.6v-9.9h3.1v9.9c0,.8.1,1.5.4,2,.3.5.6.9,1.1,1.2.5.3,1.1.4,1.8.4s1.3-.1,1.8-.4c.5-.3.9-.7,1.2-1.2.3-.6.4-1.2.4-2v-9.9h3.1v9.9c0,1.5-.3,2.7-.9,3.6-.6,1-1.4,1.7-2.4,2.1-1,.5-2.1.7-3.3.7ZM391.2,487.3v-16.1h3.1v6.4l5.8-6.4h3.8l-5.9,6.4,6.1,9.8h-3.8l-4.5-7.3-1.5,1.6v5.7h-3.1ZM415.1,487.5c-1.2,0-2.3-.2-3.2-.7-1-.5-1.7-1.2-2.3-2.1-.6-1-.9-2.2-.9-3.6v-9.9h3.1v9.9c0,.8.1,1.5.4,2,.3.5.6.9,1.1,1.2.5.3,1.1.4,1.8.4s1.3-.1,1.8-.4c.5-.3.9-.7,1.2-1.2.3-.6.4-1.2.4-2v-9.9h3.1v9.9c0,1.5-.3,2.7-.9,3.6-.6,1-1.4,1.7-2.4,2.1-1,.5-2.1.7-3.3.7Z"/>
    <path class="st2" d="M358.1,501.1c-.6,0-1.2-.1-1.7-.4-.5-.3-.8-.7-1.1-1.2-.3-.5-.4-1.1-.4-1.8s.1-1.3.4-1.8c.3-.5.6-.9,1.1-1.2.5-.3,1.1-.4,1.7-.4s1.4.2,1.9.5c.5.4.8.9,1,1.5h-.8c0-.4-.3-.8-.7-1-.4-.3-.8-.4-1.4-.4s-1,.1-1.3.3c-.4.2-.7.6-.9,1-.2.4-.3.9-.3,1.5s.1,1.1.3,1.5c.2.4.5.8.9,1,.4.2.8.3,1.3.3.8,0,1.3-.2,1.7-.7.4-.4.6-1.1.7-1.9h-2v-.5h2.7v3.6h-.6v-1.2c-.2.3-.4.5-.6.7-.2.2-.5.3-.8.5-.3,0-.6.1-1,.1ZM368.8,501v-6.7h.7v6.2h3.2v.5h-3.8ZM382.5,501.1c-.6,0-1.2-.1-1.7-.4-.5-.3-.9-.7-1.1-1.2-.3-.5-.4-1.1-.4-1.8s.1-1.3.4-1.8c.3-.5.7-.9,1.1-1.2.5-.3,1-.4,1.7-.4s1.2.1,1.7.4c.5.3.9.7,1.1,1.2.3.5.4,1.1.4,1.8s-.1,1.3-.4,1.8c-.3.5-.6.9-1.1,1.2-.5.3-1.1.4-1.7.4ZM382.6,500.5c.5,0,1-.1,1.3-.3.4-.2.7-.6.9-1,.2-.4.3-1,.3-1.6s-.1-1.1-.3-1.5c-.2-.4-.5-.8-.9-1-.4-.2-.8-.3-1.3-.3s-1,.1-1.3.3c-.4.2-.7.6-.9,1-.2.4-.3.9-.3,1.5s.1,1.1.3,1.6c.2.4.5.8.9,1,.4.2.8.3,1.3.3ZM393.4,501v-6.7h2.3c.5,0,.9,0,1.2.2s.5.4.7.6c.2.3.2.5.2.9s0,.6-.2.9c-.1.2-.3.4-.6.5-.2.1-.5.2-.7.2h.1c.3,0,.5,0,.8.1.2.1.4.3.6.6.1.2.2.5.2.8s0,.6-.2.9c-.2.3-.4.5-.7.7-.3.2-.7.2-1.2.2h-2.3ZM394.1,500.4h1.6c.5,0,.9-.1,1.1-.3.3-.2.4-.5.4-1s-.1-.7-.4-1c-.3-.2-.7-.4-1.1-.4h-1.6v2.6ZM394.1,497.2h1.6c.5,0,.8-.1,1-.3.2-.2.4-.5.4-.9s-.1-.6-.4-.9c-.2-.2-.6-.3-1.1-.3h-1.5v2.4ZM405,501l2.5-6.7h.7l2.5,6.7h-.7l-2.1-5.8-2.1,5.8h-.7ZM406.1,499.2l.2-.6h3l.2.6h-3.4ZM418.1,501v-6.7h.7v6.2h3.2v.5h-3.8Z"/>
    <path class="st2" d="M344.4,494.7v-12.2c1-.2,1.9-1.2,1.9-2.4s-1.1-2.4-2.4-2.4-.7,0-1,.2l-6.2-6.5c.2-.3.4-.6.4-1,0-.8-.7-1.5-1.5-1.5s-1.3.5-1.5,1.2l-10.7-.9c0,0,0-.1,0-.2,0-.8-.7-1.5-1.5-1.5s-1.5.7-1.5,1.5.2.8.5,1.1l-8.7,6.7c-.3-.2-.6-.4-1-.4-.8,0-1.5.7-1.5,1.5s.5,1.4,1.2,1.5v11.8c-.7,0-1.3.7-1.3,1.5s.7,1.5,1.5,1.5.7-.1,1-.4l7.1,8c-.1.2-.2.5-.2.8,0,.8.7,1.5,1.5,1.5s1.3-.5,1.4-1.1l11.3,1.1c0,.8.7,1.4,1.5,1.4s1.5-.7,1.5-1.5-.2-.8-.5-1.1l7.4-5.8c.3.4.7.6,1.2.6.8,0,1.5-.7,1.5-1.5s-.6-1.5-1.4-1.5ZM336.5,496.6c0-.1,0-.2,0-.3,0-1.1-.7-2.1-1.7-2.6l2.7-7c.2,0,.4.1.6.1s.5,0,.8-.2l4.3,8.6c-.2.2-.4.6-.4.9l-6.3.5ZM334.1,502.7l-8.4-8.2c.3-.2.6-.4.8-.7l4.3,1.8c0,.2,0,.4,0,.7,0,1.6,1.3,2.9,2.9,2.9s.2,0,.3,0l.5,3.5c-.1,0-.2,0-.3,0ZM312.6,492.6c0-.4-.2-.7-.5-1l2.8-5c.4.2.8.3,1.2.3.7,0,1.3-.3,1.8-.7l4.2,4.7c-.2.4-.3.8-.3,1.2l-9.2.5ZM323,475.3l11.4-3.8c.1.1.2.2.4.3l-3.1,6.5c-.4-.2-.8-.3-1.3-.3-1,0-1.9.5-2.4,1.2l-5-2.5c.1-.2.2-.5.2-.7s0-.4-.1-.6ZM333.7,493.4c-1.3,0-2.4.9-2.7,2.1l-4.3-1.8c.3-.4.5-1,.5-1.5s-.2-1.3-.6-1.7l10.6-4.1c.1.1.2.2.4.3l-2.7,7c-.3-.1-.7-.2-1.1-.2ZM322.8,476.7l5,2.5c-.4.5-.6,1.1-.6,1.8,0,1.1.5,2,1.4,2.6l-3.6,5.9c-.2,0-.3,0-.5,0-.6,0-1.1.2-1.5.5l-.9-12.7c.3-.1.6-.3.7-.6ZM337,486.2l-10.6,4.1c-.3-.4-.8-.6-1.3-.7l3.6-5.9c.5.3,1,.5,1.6.5,1.3,0,2.4-.8,2.9-1.9l3.8,2.1c-.2.3-.3.6-.3.9s.1.6.3.9ZM337.1,484.2l-3.9-2.1c.1-.3.2-.7.2-1.1,0-1.2-.7-2.2-1.7-2.8l3.1-6.5c.2,0,.4.1.6.1s.6,0,.8-.2l1.6,12.1c-.3,0-.6.2-.8.4ZM321.6,477.3c.1,0,.2,0,.3,0l.9,12.7c-.2.2-.5.4-.6.7l-4.1-4.6c.6-.5,1-1.3,1-2.2s-.5-1.8-1.2-2.4l3.1-4.4c.2,0,.4.2.7.2ZM344.3,494.7c-.3,0-.6.1-.9.3l-4.3-8.6c.4-.3.6-.7.6-1.2s-.1-.7-.3-.9l2.6-2.6c.4.5,1.1.9,1.8.9s.2,0,.3,0v12.2ZM341.4,480.2c0,.6.2,1.1.5,1.5l-2.6,2.6c-.3-.3-.7-.5-1.1-.5s0,0-.1,0l-1.7-12.2s0,0,0,0l6.2,6.5c-.8.4-1.4,1.2-1.4,2.2ZM334,470.2c0,0,0,.1,0,.2,0,.3.1.6.3.9l-11.3,3.8c-.2-.4-.6-.7-1-.8l.3-4c.6-.1,1-.5,1.1-1.1l10.7.9ZM321.8,470.4c0,0,.1,0,.2,0l-.3,3.9s0,0-.1,0c-.8,0-1.5.7-1.5,1.5s.3,1,.7,1.3l-3.1,4.4c-.5-.3-1-.5-1.6-.5s-1.3.2-1.8.6l-2.1-2.7c.3-.3.4-.6.4-1.1s-.2-.8-.4-1l8.7-6.7c.2.2.5.3.9.3ZM311.2,479.4c.4,0,.7-.1.9-.3l2.1,2.7c-.6.5-1,1.3-1,2.2s.7,2.1,1.6,2.6l-2.8,5c-.2-.2-.5-.3-.8-.3v-11.8c0,0,0,0,0,0ZM312.2,493.8c.3-.3.4-.6.4-1s0,0,0,0l9.2-.5c0,.9.5,1.7,1.2,2.1l-2.1,6.8c-.1,0-.2,0-.4,0-.5,0-.9.2-1.2.6l-7.1-8ZM321,501.2l2.1-6.8c.4.2.9.4,1.4.4s.8-.1,1.2-.3l8.4,8.2c-.5.2-.8.7-.8,1.2l-11.2-1.1c0,0,0-.2,0-.2,0-.6-.4-1.2-1-1.4ZM335.6,502.9c-.3-.2-.6-.3-.9-.3s0,0,0,0l-.5-3.5c1.2-.2,2.2-1.1,2.4-2.3l6.3-.5c0,.3,0,.5.2.7l-7.5,5.9Z"/>
  </g>
  <rect class="st4" x="14.4" y="225.6" width="573.6" height="13.2"/>
</svg>